<svg xmlns="http://www.w3.org/2000/svg"><symbol id="right-straight-arrow" viewBox="0 0 199.405 199.405"><path d="M99.703 199.405l99.702-99.703L99.703 0 71.418 28.285l53.244 53.244H0v36.347h124.662L71.418 171.12z"/></symbol><symbol id="sent-mail" viewBox="0 0 334.5 334.5"><path d="M332.797 13.699a5.003 5.003 0 0 0-5.404-.776L2.893 163.695a5.001 5.001 0 0 0-.096 9.023l91.833 45.068a5 5 0 0 0 5.196-.484l89.287-66.734-70.094 72.1a5 5 0 0 0-1.4 3.868l6.979 90.889a5 5 0 0 0 8.771 2.884l48.742-56.482 60.255 28.79a5 5 0 0 0 6.926-3.014L334.27 18.956a5 5 0 0 0-1.473-5.257z"/></symbol></svg>